<?xml version="1.0" standalone="no"?>
<!DOCTYPE svg PUBLIC "-//W3C//DTD SVG 20010904//EN"
 "http://www.w3.org/TR/2001/REC-SVG-20010904/DTD/svg10.dtd">
<svg version="1.0" xmlns="http://www.w3.org/2000/svg"
 width="700.000000pt" height="700.000000pt" viewBox="0 0 700.000000 700.000000"
 preserveAspectRatio="xMidYMid meet">
<metadata>
Created by potrace 1.14, written by Peter Selinger 2001-2017
</metadata>
<g transform="translate(0.000000,700.000000) scale(0.100000,-0.100000)"
fill="#000000" stroke="none">
<path d="M3258 5975 c-1 -1 -54 -6 -116 -10 -62 -3 -123 -8 -135 -10 -19 -4
-106 -15 -237 -31 -71 -9 -348 -66 -460 -96 -174 -45 -355 -103 -471 -148 -57
-23 -108 -43 -114 -44 -16 -5 -62 -24 -107 -46 -23 -11 -46 -20 -50 -20 -12 0
-310 -150 -376 -189 -29 -17 -54 -31 -56 -31 -20 0 -366 -229 -502 -331 -271
-205 -558 -473 -604 -565 -35 -69 -35 -196 0 -269 35 -73 3261 -3300 3335
-3336 71 -34 198 -34 270 1 74 35 3290 3250 3329 3327 51 101 42 238 -22 323
-87 116 -431 417 -682 597 -82 59 -317 213 -324 213 -2 0 -43 23 -92 51 -124
72 -357 187 -494 244 -63 26 -124 52 -135 56 -31 14 -278 100 -295 104 -8 2
-62 16 -120 33 -128 37 -241 64 -380 92 -129 25 -120 24 -340 55 -14 2 -61 7
-105 11 -44 3 -96 9 -115 11 -43 5 -597 13 -602 8z"/>
</g>
</svg>
